# xmcd CD database file
#
# Track frame offsets:
#	150
#	18013
#	31665
#	46370
#	61075
#	81720
#	95918
#	114583
#	135518
#	151648
#	173725
#	189483
#	206038
#	219665
#	232148
#	253995
#	273318
#
# Disc length: 3684 seconds
#
# Revision: 0
# Processed by: cddbd v1.5.1PL0 Copyright (c) Steve Scherf et al.
# Submitted via: CDex 1.51
#
DISCID=ed0e6211
DTITLE=Various Artist - スーパー戦隊主題歌・挿入歌大全集? DISC3
DYEAR=2004
DGENRE=Anime
TTITLE0=坂井紀雄/Digdug！デジタンク
TTITLE1=朝川ひろこ/Bomb Dancing メガレンジャー
TTITLE2=大木理紗/COSMIC WORLD
TTITLE3=高山成孝/マルチウエポン目が離せない！
TTITLE4=風雅なおと/電磁合体！ギャラクシーメガ
TTITLE5=風雅なおと/気のせいかな
TTITLE6=山形ユキオ/最強！スーパーギャラクシーメガ!!
TTITLE7=KAT/eighteen, eighteen
TTITLE8=高尾直樹/Don't Stop メガシルバー
TTITLE9=関智一/ビビ！ビビデビだデビ!!
TTITLE10=城麻美/青い悪魔の微笑み
TTITLE11=MEGA MICKEY/MEGARANGER"THE CYBERDELIX"
TTITLE12=KAT/踊ろよバトル 〜オレたちのすべて〜
TTITLE13=田中恵理/私らしく明日へ
TTITLE14=坂井紀雄/銀河を守れ！メガボイジャー
TTITLE15=大柴邦彦、江原淳史、松風雅也、田中恵理、東山麻美/５人でメガレンジャー
TTITLE16=東山麻美/諸星学園高校修学旅行の歌
EXTD=YEAR: 2004
EXTT0=
EXTT1=
EXTT2=
EXTT3=
EXTT4=
EXTT5=
EXTT6=
EXTT7=
EXTT8=
EXTT9=
EXTT10=
EXTT11=
EXTT12=
EXTT13=
EXTT14=
EXTT15=
EXTT16=
PLAYORDER=
